<svg width="23" height="23" viewBox="0 0 23 23" fill="none" xmlns="http://www.w3.org/2000/svg">
<path d="M23 11.3005C22.8949 5.0411 17.7861 0 11.5 0C5.21389 0 0.0630713 5.08311 0 11.3635C0 11.3845 0 11.4055 0 11.4475V11.5105C0 17.8539 5.15082 23 11.5 23C17.8492 23 23 17.8539 23 11.5105V11.4265C23 11.3845 23 11.3425 23 11.3005ZM13.1188 15.3963C14.2541 14.2621 14.9689 12.6868 14.9689 10.9644C14.9689 9.68311 14.5905 8.48584 13.9388 7.49863C18.6691 7.91872 22.3062 9.49406 22.4324 11.3215C22.4324 11.3425 22.4324 11.3845 22.4324 11.4055V11.4265C22.3693 13.4219 18.2697 15.1023 13.1188 15.3963ZM11.5 0.588128C16.9241 0.588128 21.4442 4.55799 22.2642 9.74612C20.8556 8.23379 17.5338 7.12055 13.4132 6.84749C12.7824 6.80548 12.1517 6.78447 11.479 6.78447C8.0521 6.78447 5.02468 7.3516 2.94333 8.2758C1.97623 8.69589 1.21938 9.2 0.714808 9.74612C1.55576 4.579 6.07587 0.588128 11.5 0.588128ZM0.588665 11.4055C0.588665 11.3845 0.588665 11.3635 0.588665 11.3215C0.630713 10.5023 1.40859 9.72511 2.64899 9.07397C2.45978 9.6621 2.37569 10.2922 2.37569 10.9434C2.37569 12.0356 2.64899 13.0648 3.15356 13.947C1.57678 13.2539 0.630713 12.3717 0.609689 11.4265V11.4055H0.588665ZM11.5 22.3909C6.0128 22.3909 1.45064 18.316 0.693784 13.0438C1.3245 13.737 2.37569 14.3671 3.72121 14.8502C5.76051 15.5854 8.47258 16.0475 11.5 16.0475C11.7943 16.0475 12.0887 16.0475 12.383 16.0265C17.0082 15.9005 20.7925 14.7032 22.3062 13.0438C21.5494 18.316 16.9872 22.3909 11.5 22.3909Z" fill="black"/>
</svg>
