<svg xmlns="http://www.w3.org/2000/svg" fill="none" viewBox="0 0 76 76"><path d="M38.217.606c20.782 0 37.63 16.869 37.63 37.678 0 20.809-16.848 37.678-37.63 37.678-20.782 0-37.63-16.87-37.63-37.678C.587 17.475 17.435.606 38.217.606Z" fill="url(#a)" fill-rule="evenodd" clip-rule="evenodd"/><path d="M43.105 75.645V46.542H51.3L52.386 36.3h-9.28l.013-5.127c0-2.671.254-4.102 4.086-4.102h5.123V16.827h-8.196c-9.845 0-13.31 4.969-13.31 13.326v6.15h-6.136v10.243h6.137v28.69a37.921 37.921 0 0 0 12.283.412Z" fill="#fff"/><defs><linearGradient id="a" x1="38.217" x2="38.217" y1="-.081" y2="79.175" gradientUnits="userSpaceOnUse"><stop stop-color="#00B2FF"/><stop offset="1" stop-color="#006AFF"/></linearGradient></defs></svg>