<svg width="62" height="62" viewBox="0 0 62 62" fill="none" xmlns="http://www.w3.org/2000/svg">
<path d="M8.23926 30.126C7.74126 30.126 7.27926 30.048 6.85326 29.892C6.43326 29.73 6.06726 29.502 5.75526 29.208C5.44926 28.914 5.20926 28.569 5.03526 28.173C4.86126 27.771 4.77426 27.33 4.77426 26.85C4.77426 26.37 4.86126 25.932 5.03526 25.536C5.20926 25.134 5.44926 24.786 5.75526 24.492C6.06726 24.198 6.43326 23.973 6.85326 23.817C7.27926 23.655 7.74126 23.574 8.23926 23.574C8.82126 23.574 9.34026 23.676 9.79626 23.88C10.2583 24.084 10.6423 24.378 10.9483 24.762L9.81426 25.788C9.61026 25.548 9.38526 25.365 9.13926 25.239C8.89926 25.113 8.62926 25.05 8.32926 25.05C8.07126 25.05 7.83426 25.092 7.61826 25.176C7.40226 25.26 7.21626 25.383 7.06026 25.545C6.91026 25.701 6.79026 25.89 6.70026 26.112C6.61626 26.334 6.57426 26.58 6.57426 26.85C6.57426 27.12 6.61626 27.366 6.70026 27.588C6.79026 27.81 6.91026 28.002 7.06026 28.164C7.21626 28.32 7.40226 28.44 7.61826 28.524C7.83426 28.608 8.07126 28.65 8.32926 28.65C8.62926 28.65 8.89926 28.587 9.13926 28.461C9.38526 28.335 9.61026 28.152 9.81426 27.912L10.9483 28.938C10.6423 29.316 10.2583 29.61 9.79626 29.82C9.34026 30.024 8.82126 30.126 8.23926 30.126ZM15.788 30.126C15.284 30.126 14.819 30.045 14.393 29.883C13.967 29.721 13.595 29.493 13.277 29.199C12.965 28.899 12.722 28.551 12.548 28.155C12.374 27.759 12.287 27.324 12.287 26.85C12.287 26.376 12.374 25.941 12.548 25.545C12.722 25.149 12.965 24.804 13.277 24.51C13.595 24.21 13.967 23.979 14.393 23.817C14.819 23.655 15.284 23.574 15.788 23.574C16.298 23.574 16.763 23.655 17.183 23.817C17.609 23.979 17.978 24.21 18.29 24.51C18.602 24.804 18.845 25.149 19.019 25.545C19.199 25.941 19.289 26.376 19.289 26.85C19.289 27.324 19.199 27.762 19.019 28.164C18.845 28.56 18.602 28.905 18.29 29.199C17.978 29.493 17.609 29.721 17.183 29.883C16.763 30.045 16.298 30.126 15.788 30.126ZM15.788 28.65C16.028 28.65 16.25 28.608 16.454 28.524C16.664 28.44 16.844 28.32 16.994 28.164C17.15 28.002 17.27 27.81 17.354 27.588C17.444 27.366 17.489 27.12 17.489 26.85C17.489 26.574 17.444 26.328 17.354 26.112C17.27 25.89 17.15 25.701 16.994 25.545C16.844 25.383 16.664 25.26 16.454 25.176C16.25 25.092 16.028 25.05 15.788 25.05C15.548 25.05 15.323 25.092 15.113 25.176C14.909 25.26 14.729 25.383 14.573 25.545C14.423 25.701 14.303 25.89 14.213 26.112C14.129 26.328 14.087 26.574 14.087 26.85C14.087 27.12 14.129 27.366 14.213 27.588C14.303 27.81 14.423 28.002 14.573 28.164C14.729 28.32 14.909 28.44 15.113 28.524C15.323 28.608 15.548 28.65 15.788 28.65ZM21.2223 30V23.7H22.6893L26.1633 27.894H25.4703V23.7H27.2163V30H25.7493L22.2753 25.806H22.9683V30H21.2223ZM30.8143 30V25.113H28.8793V23.7H34.5223V25.113H32.5963V30H30.8143ZM35.1137 30L37.8947 23.7H39.6497L42.4397 30H40.5857L38.4077 24.573H39.1097L36.9317 30H35.1137ZM36.6347 28.776L37.0937 27.462H40.1717L40.6307 28.776H36.6347ZM46.9981 30.126C46.5001 30.126 46.0381 30.048 45.6121 29.892C45.1921 29.73 44.8261 29.502 44.5141 29.208C44.2081 28.914 43.9681 28.569 43.7941 28.173C43.6201 27.771 43.5331 27.33 43.5331 26.85C43.5331 26.37 43.6201 25.932 43.7941 25.536C43.9681 25.134 44.2081 24.786 44.5141 24.492C44.8261 24.198 45.1921 23.973 45.6121 23.817C46.0381 23.655 46.5001 23.574 46.9981 23.574C47.5801 23.574 48.0991 23.676 48.5551 23.88C49.0171 24.084 49.4011 24.378 49.7071 24.762L48.5731 25.788C48.3691 25.548 48.1441 25.365 47.8981 25.239C47.6581 25.113 47.3881 25.05 47.0881 25.05C46.8301 25.05 46.5931 25.092 46.3771 25.176C46.1611 25.26 45.9751 25.383 45.8191 25.545C45.6691 25.701 45.5491 25.89 45.4591 26.112C45.3751 26.334 45.3331 26.58 45.3331 26.85C45.3331 27.12 45.3751 27.366 45.4591 27.588C45.5491 27.81 45.6691 28.002 45.8191 28.164C45.9751 28.32 46.1611 28.44 46.3771 28.524C46.5931 28.608 46.8301 28.65 47.0881 28.65C47.3881 28.65 47.6581 28.587 47.8981 28.461C48.1441 28.335 48.3691 28.152 48.5731 27.912L49.7071 28.938C49.4011 29.316 49.0171 29.61 48.5551 29.82C48.0991 30.024 47.5801 30.126 46.9981 30.126ZM52.7898 30V25.113H50.8548V23.7H56.4978V25.113H54.5718V30H52.7898ZM27.0858 40.126C26.1558 40.126 25.4298 39.871 24.9078 39.361C24.3858 38.851 24.1248 38.128 24.1248 37.192V33.7H25.9068V37.138C25.9068 37.678 26.0118 38.065 26.2218 38.299C26.4378 38.533 26.7318 38.65 27.1038 38.65C27.4758 38.65 27.7668 38.533 27.9768 38.299C28.1868 38.065 28.2918 37.678 28.2918 37.138V33.7H30.0468V37.192C30.0468 38.128 29.7858 38.851 29.2638 39.361C28.7418 39.871 28.0158 40.126 27.0858 40.126ZM34.468 40.126C33.952 40.126 33.454 40.063 32.974 39.937C32.5 39.805 32.113 39.637 31.813 39.433L32.398 38.119C32.68 38.299 33.004 38.449 33.37 38.569C33.742 38.683 34.111 38.74 34.477 38.74C34.723 38.74 34.921 38.719 35.071 38.677C35.221 38.629 35.329 38.569 35.395 38.497C35.467 38.419 35.503 38.329 35.503 38.227C35.503 38.083 35.437 37.969 35.305 37.885C35.173 37.801 35.002 37.732 34.792 37.678C34.582 37.624 34.348 37.57 34.09 37.516C33.838 37.462 33.583 37.393 33.325 37.309C33.073 37.225 32.842 37.117 32.632 36.985C32.422 36.847 32.251 36.67 32.119 36.454C31.987 36.232 31.921 35.953 31.921 35.617C31.921 35.239 32.023 34.897 32.227 34.591C32.437 34.285 32.749 34.039 33.163 33.853C33.577 33.667 34.093 33.574 34.711 33.574C35.125 33.574 35.53 33.622 35.926 33.718C36.328 33.808 36.685 33.943 36.997 34.123L36.448 35.446C36.148 35.284 35.851 35.164 35.557 35.086C35.263 35.002 34.978 34.96 34.702 34.96C34.456 34.96 34.258 34.987 34.108 35.041C33.958 35.089 33.85 35.155 33.784 35.239C33.718 35.323 33.685 35.419 33.685 35.527C33.685 35.665 33.748 35.776 33.874 35.86C34.006 35.938 34.177 36.004 34.387 36.058C34.603 36.106 34.837 36.157 35.089 36.211C35.347 36.265 35.602 36.334 35.854 36.418C36.112 36.496 36.346 36.604 36.556 36.742C36.766 36.874 36.934 37.051 37.06 37.273C37.192 37.489 37.258 37.762 37.258 38.092C37.258 38.458 37.153 38.797 36.943 39.109C36.739 39.415 36.43 39.661 36.016 39.847C35.608 40.033 35.092 40.126 34.468 40.126Z" fill="black"/>
<circle cx="30.65" cy="30.65" r="29.8" stroke="black" stroke-width="1.7"/>
</svg>
