<svg width="62" height="62" viewBox="0 0 62 62" fill="none" xmlns="http://www.w3.org/2000/svg">
<circle cx="30.65" cy="30.65" r="29.8" fill="black" stroke="black" stroke-width="1.7"/>
<path d="M13.8292 31.096C13.3972 31.096 12.9945 31.0267 12.6212 30.888C12.2532 30.744 11.9332 30.5413 11.6612 30.28C11.3892 30.0187 11.1758 29.712 11.0212 29.36C10.8718 29.008 10.7972 28.6213 10.7972 28.2C10.7972 27.7787 10.8718 27.392 11.0212 27.04C11.1758 26.688 11.3892 26.3813 11.6612 26.12C11.9385 25.8587 12.2612 25.6587 12.6292 25.52C12.9972 25.376 13.3998 25.304 13.8372 25.304C14.3225 25.304 14.7598 25.3893 15.1492 25.56C15.5438 25.7253 15.8745 25.9707 16.1412 26.296L15.3092 27.064C15.1172 26.8453 14.9038 26.6827 14.6692 26.576C14.4345 26.464 14.1785 26.408 13.9012 26.408C13.6398 26.408 13.3998 26.4507 13.1812 26.536C12.9625 26.6213 12.7732 26.744 12.6132 26.904C12.4532 27.064 12.3278 27.2533 12.2372 27.472C12.1518 27.6907 12.1092 27.9333 12.1092 28.2C12.1092 28.4667 12.1518 28.7093 12.2372 28.928C12.3278 29.1467 12.4532 29.336 12.6132 29.496C12.7732 29.656 12.9625 29.7787 13.1812 29.864C13.3998 29.9493 13.6398 29.992 13.9012 29.992C14.1785 29.992 14.4345 29.9387 14.6692 29.832C14.9038 29.72 15.1172 29.552 15.3092 29.328L16.1412 30.096C15.8745 30.4213 15.5438 30.6693 15.1492 30.84C14.7598 31.0107 14.3198 31.096 13.8292 31.096ZM19.7192 31.096C19.2765 31.096 18.8658 31.024 18.4872 30.88C18.1138 30.736 17.7885 30.5333 17.5112 30.272C17.2392 30.0107 17.0258 29.704 16.8712 29.352C16.7218 29 16.6472 28.616 16.6472 28.2C16.6472 27.784 16.7218 27.4 16.8712 27.048C17.0258 26.696 17.2418 26.3893 17.5192 26.128C17.7965 25.8667 18.1218 25.664 18.4952 25.52C18.8685 25.376 19.2738 25.304 19.7112 25.304C20.1538 25.304 20.5592 25.376 20.9272 25.52C21.3005 25.664 21.6232 25.8667 21.8952 26.128C22.1725 26.3893 22.3885 26.696 22.5432 27.048C22.6978 27.3947 22.7752 27.7787 22.7752 28.2C22.7752 28.616 22.6978 29.0027 22.5432 29.36C22.3885 29.712 22.1725 30.0187 21.8952 30.28C21.6232 30.536 21.3005 30.736 20.9272 30.88C20.5592 31.024 20.1565 31.096 19.7192 31.096ZM19.7112 29.992C19.9618 29.992 20.1912 29.9493 20.3992 29.864C20.6125 29.7787 20.7992 29.656 20.9592 29.496C21.1192 29.336 21.2418 29.1467 21.3272 28.928C21.4178 28.7093 21.4632 28.4667 21.4632 28.2C21.4632 27.9333 21.4178 27.6907 21.3272 27.472C21.2418 27.2533 21.1192 27.064 20.9592 26.904C20.8045 26.744 20.6205 26.6213 20.4072 26.536C20.1938 26.4507 19.9618 26.408 19.7112 26.408C19.4605 26.408 19.2285 26.4507 19.0152 26.536C18.8072 26.6213 18.6232 26.744 18.4632 26.904C18.3032 27.064 18.1778 27.2533 18.0872 27.472C18.0018 27.6907 17.9592 27.9333 17.9592 28.2C17.9592 28.4613 18.0018 28.704 18.0872 28.928C18.1778 29.1467 18.3005 29.336 18.4552 29.496C18.6152 29.656 18.8018 29.7787 19.0152 29.864C19.2285 29.9493 19.4605 29.992 19.7112 29.992ZM23.8492 31V25.4H24.9212L28.2252 29.432H27.7052V25.4H28.9852V31H27.9212L24.6092 26.968H25.1292V31H23.8492ZM31.5701 31V26.456H29.7781V25.4H34.6581V26.456H32.8661V31H31.5701ZM34.4382 31L36.9342 25.4H38.2142L40.7182 31H39.3582L37.3102 26.056H37.8222L35.7662 31H34.4382ZM35.6862 29.8L36.0302 28.816H38.9102L39.2622 29.8H35.6862ZM44.001 31.096C43.569 31.096 43.1664 31.0267 42.793 30.888C42.425 30.744 42.105 30.5413 41.833 30.28C41.561 30.0187 41.3477 29.712 41.193 29.36C41.0437 29.008 40.969 28.6213 40.969 28.2C40.969 27.7787 41.0437 27.392 41.193 27.04C41.3477 26.688 41.561 26.3813 41.833 26.12C42.1104 25.8587 42.433 25.6587 42.801 25.52C43.169 25.376 43.5717 25.304 44.009 25.304C44.4944 25.304 44.9317 25.3893 45.321 25.56C45.7157 25.7253 46.0464 25.9707 46.313 26.296L45.481 27.064C45.289 26.8453 45.0757 26.6827 44.841 26.576C44.6064 26.464 44.3504 26.408 44.073 26.408C43.8117 26.408 43.5717 26.4507 43.353 26.536C43.1344 26.6213 42.945 26.744 42.785 26.904C42.625 27.064 42.4997 27.2533 42.409 27.472C42.3237 27.6907 42.281 27.9333 42.281 28.2C42.281 28.4667 42.3237 28.7093 42.409 28.928C42.4997 29.1467 42.625 29.336 42.785 29.496C42.945 29.656 43.1344 29.7787 43.353 29.864C43.5717 29.9493 43.8117 29.992 44.073 29.992C44.3504 29.992 44.6064 29.9387 44.841 29.832C45.0757 29.72 45.289 29.552 45.481 29.328L46.313 30.096C46.0464 30.4213 45.7157 30.6693 45.321 30.84C44.9317 31.0107 44.4917 31.096 44.001 31.096ZM48.3935 31V26.456H46.6015V25.4H51.4815V26.456H49.6895V31H48.3935ZM28.3989 40.096C27.6042 40.096 26.9829 39.8747 26.5349 39.432C26.0869 38.9893 25.8629 38.3573 25.8629 37.536V34.4H27.1589V37.488C27.1589 38.0213 27.2682 38.4053 27.4869 38.64C27.7055 38.8747 28.0122 38.992 28.4069 38.992C28.8015 38.992 29.1082 38.8747 29.3269 38.64C29.5455 38.4053 29.6549 38.0213 29.6549 37.488V34.4H30.9349V37.536C30.9349 38.3573 30.7109 38.9893 30.2629 39.432C29.8149 39.8747 29.1935 40.096 28.3989 40.096ZM34.1556 40.096C33.7076 40.096 33.2782 40.0373 32.8676 39.92C32.4569 39.7973 32.1262 39.64 31.8756 39.448L32.3156 38.472C32.5556 38.6427 32.8382 38.784 33.1636 38.896C33.4942 39.0027 33.8276 39.056 34.1636 39.056C34.4196 39.056 34.6249 39.032 34.7796 38.984C34.9396 38.9307 35.0569 38.8587 35.1316 38.768C35.2062 38.6773 35.2436 38.5733 35.2436 38.456C35.2436 38.3067 35.1849 38.1893 35.0676 38.104C34.9502 38.0133 34.7956 37.9413 34.6036 37.888C34.4116 37.8293 34.1982 37.776 33.9636 37.728C33.7342 37.6747 33.5022 37.6107 33.2676 37.536C33.0382 37.4613 32.8276 37.3653 32.6356 37.248C32.4436 37.1307 32.2862 36.976 32.1636 36.784C32.0462 36.592 31.9876 36.3467 31.9876 36.048C31.9876 35.728 32.0729 35.4373 32.2436 35.176C32.4196 34.9093 32.6809 34.6987 33.0276 34.544C33.3796 34.384 33.8196 34.304 34.3476 34.304C34.6996 34.304 35.0462 34.3467 35.3876 34.432C35.7289 34.512 36.0302 34.6347 36.2916 34.8L35.8916 35.784C35.6302 35.6347 35.3689 35.5253 35.1076 35.456C34.8462 35.3813 34.5902 35.344 34.3396 35.344C34.0889 35.344 33.8836 35.3733 33.7236 35.432C33.5636 35.4907 33.4489 35.568 33.3796 35.664C33.3102 35.7547 33.2756 35.8613 33.2756 35.984C33.2756 36.128 33.3342 36.2453 33.4516 36.336C33.5689 36.4213 33.7236 36.4907 33.9156 36.544C34.1076 36.5973 34.3182 36.6507 34.5476 36.704C34.7822 36.7573 35.0142 36.8187 35.2436 36.888C35.4782 36.9573 35.6916 37.0507 35.8836 37.168C36.0756 37.2853 36.2302 37.44 36.3476 37.632C36.4702 37.824 36.5316 38.0667 36.5316 38.36C36.5316 38.6747 36.4436 38.9627 36.2676 39.224C36.0916 39.4853 35.8276 39.696 35.4756 39.856C35.1289 40.016 34.6889 40.096 34.1556 40.096Z" fill="#FEFAFA"/>
</svg>
