<?xml version="1.0" encoding="utf-8"?>
<!-- Generator: Adobe Illustrator 23.1.0, SVG Export Plug-In . SVG Version: 6.00 Build 0)  -->
<svg version="1.1" id="Layer_1" xmlns="http://www.w3.org/2000/svg" xmlns:xlink="http://www.w3.org/1999/xlink" x="0px" y="0px"
	 viewBox="0 0 837.2 121.5" style="enable-background:new 0 0 837.2 121.5;" xml:space="preserve">
<g>
	<path d="M607.9,100.3h-10.5c-0.9-6.6-2-13.5-2.8-20.3c-1.2-9.4-2.1-18.8-3.4-28.2c-0.1-1-1.3-2.3-2.3-2.6c-0.6-0.2-2.2,0.8-2.6,1.7
		c-2.4,4.8-4.6,9.8-6.9,14.7c-1.6,3.3-3.4,6.6-5,9.9c-4,8.4-7.9,16.9-11.9,25.3c-0.2,0.5-0.6,0.9-1.4,1.9c-1.5-2.5-2.9-4.7-3.9-7
		c-1.4-3.1-2.2-6.4-3.7-9.4c-2.1-4.5-4.5-8.9-6.8-13.3c-2.3-4.4-4.5-8.9-6.9-13.3c-1-2-2.2-3.9-3.5-5.7c-0.3-0.4-1.5-0.6-1.7-0.4
		c-0.7,0.6-1.3,1.5-1.4,2.3c-0.4,4.1-0.6,8.3-1,12.4c-0.6,6.7-1.4,13.3-2.1,20c-0.4,3.9-0.9,7.7-1.5,12c-3.6-0.3-7.2-0.5-11.2-0.8
		c0.8-3.9,1.6-7.3,2.2-10.8c0.6-3.7,1.2-7.5,1.6-11.3c1.1-10.9,2-21.9,3-32.8c0.5-5.5,1-11.1,1.3-16.6c0.1-2.3,1.7-3.2,3.3-3.3
		c2,0,4.6-1.4,6.1,1.5c3.3,6.3,6.9,12.3,9.9,18.7c4.9,10.6,9.4,21.3,14.2,32c0.5,1.2,2,1.9,3.1,2.9c0.9-1.1,2.1-2,2.6-3.3
		c2.9-6.8,5.7-13.6,8.5-20.4c3.6-8.4,7.1-16.9,10.8-25.3c0.7-1.6,1.8-3,2.4-4.6c1-3.2,3.3-2.8,5.4-2c3.1,1.2,5.4,2.4,5.8,7
		c1.4,13.4,3.9,26.7,6,40c0.7,4.8,1.5,9.6,2.2,14.4C606.5,90.3,607.2,95.1,607.9,100.3"/>
	<path d="M75.4,42.3c3.4-0.3,6.4-0.6,9.4-1c0.5-0.1,1.1-0.4,1.6-0.3c1.9,0.1,5.1-0.1,5.4,0.7c0.8,2,0.7,4.7,0.2,6.9
		c-0.5,2.5-2.9,2.5-5.1,2.2c-2.9-0.3-5.9-0.5-8.8-0.9c-2.1-0.2-3,0.7-2.9,2.8c0.2,6.4,0.3,12.9,0.7,19.3c0,0.7,1.6,1.9,2.5,1.9
		c4.2,0.2,8.4,0.1,12.9,0.1c0.3,1.2,0.9,2.7,1.1,4.1c0.4,2.5-1.7,5.3-4.3,5.6c-3.1,0.4-6.3,0.7-9.5,0.4c-2.3-0.2-2.6,0.6-2.6,2.5
		c0.1,3.1,0,6.1,0.1,9.2c0.1,4.2-0.4,4.7-4.6,4.6c-1,0-1.9-0.1-3.3-0.2c-0.6-5.6-1.1-11.2-1.8-17.4H43.8c0,4.7-0.2,9.5,0.1,14.2
		c0.2,3.5,0,4.2-3.7,4.2c-0.3,0-0.7,0-1,0c-5,0-5,0-5-4.9c0-3.7-0.1-7.4,0.1-11.1c0.1-2.2-0.6-3.3-3-3.1c-2.3,0.2-4.6,0.4-6.9,0.4
		c-1,0-3-0.6-3-0.8c0.2-2.1-2.1-4.9,0.7-6.1c2.6-1,5.7-1.1,8.5-1.2c5-0.2,5.1,0,5.3-5.1c0.2-5.4,0-10.9,0.2-16.3
		c0.1-2.4-0.9-3-3.1-2.9c-3.9,0.1-7.8,0-11.2,0c-0.6-0.9-0.8-1.1-0.8-1.3c-0.3-7.8-0.3-7.8,7.7-7.2c0.3,0,0.7,0,1,0
		c6,0,6.2-0.2,6.3-6.2c0-3.9,0-7.8,0-11.9c1.1-0.3,2-0.6,2.9-0.8c3.9-0.9,4.9,0,4.9,3.9c0,4.6,0,9.1,0,14.1c7,0.3,14.1,0.6,21.1,0.7
		c0.6,0,1.7-1.5,1.7-2.3c0-3.5-0.2-7-0.5-10.4c-0.4-4.9,2.8-7.8,7.4-6.2c0.8,0.3,1.6,2.2,1.6,3.4C75.5,31.1,75.4,36.4,75.4,42.3
		 M44.5,72.4c6.1,0,12.1-0.1,18.1,0c2.3,0,2.7-1,2.7-3c0-5.3,0.1-10.7,0.2-16c0.1-2.1-0.5-3.1-2.8-2.9c-5.5,0.5-11,0.9-16.4,1.5
		c-0.7,0.1-1.8,1.2-1.8,1.8C44.4,59.8,44.5,65.6,44.5,72.4"/>
	<path d="M443.4,24.5c2.5,0.1,4.6,0.2,6.1,0.3c4.4,6.2,8.7,12.2,12.9,18.2c2.2,3.2,4,6.8,6.5,9.8c4.4,5.7,9,11.3,13.9,16.6
		c1.1,1.2,3.9,1.6,5.6,1.2c0.9-0.2,1.9-2.8,1.9-4.3c0-4-0.6-8-0.7-12.1c-0.1-9.9,0-19.8,0-30.2h10.2c-0.3,2.9-0.7,5.3-0.8,7.8
		c-0.2,17.8-0.4,35.6-0.6,53.3c0,4.1,0.1,8.2-0.1,12.3c0,0.8-0.8,2-1.5,2.2c-0.8,0.2-2.2-0.2-2.7-0.9c-5.4-6.1-10.8-12.1-15.9-18.5
		c-3.7-4.7-6.4-10.3-10.4-14.6c-3.5-3.6-6.1-7.7-9-11.6c-0.6-0.9-2.5-1.2-3.7-1.2c-0.5,0-1.3,1.8-1.3,2.8
		c-0.1,10.8-0.1,21.6-0.1,32.4v12.8h-9.8c-0.6-4.4-1.3-8.9-1.7-13.5c-0.3-4.9-0.4-9.8-0.3-14.6c0.1-10,0.5-20,0.6-30.1
		c0-3.1-0.4-6.3-1-9.3C441,30,441.5,27,443.4,24.5"/>
	<path d="M709.4,101.4c-2.7,0-5.5-0.1-8.2,0c-1.8,0.1-3-0.4-3-2.4c-0.2-4.6-0.4-9.2-0.5-13.8c-0.1-3.6,0-7.1-0.1-10.7
		c-0.2-6.2-0.7-12.4-0.9-18.5c-0.4-8.9-0.6-17.8-0.9-26.8c-0.1-4,0.2-4,4.2-4.1c5.8-0.1,11.6-0.8,17.5-1.1c3.3-0.1,6.5,0,9.8,0.3
		c1.3,0.1,2.6,0.4,3.7,1.1c4.5,2.9,9,5.7,13.3,8.9c5.1,3.7,8.8,8.5,9,15.2c0.2,5,1.1,10,0.9,15c-0.6,12.3-6.2,22.5-15.1,30.8
		c-1.1,1-2.9,1.4-4.4,1.8c-2.9,0.8-5.9,1.4-8.9,2.1c-2.7,0.7-5.4,1.8-8.2,2.1C714.9,101.7,712.1,101.4,709.4,101.4 M720.9,32.6
		c-2.2,0.2-4.3,0.4-6.5,0.5c-5.2,0.2-6.4,0.8-6.7,5.7c-0.5,8.4-0.7,16.9-0.5,25.4c0.2,7.2,2.1,14.3-0.1,21.5
		c-0.8,2.6,0.4,4.3,3.3,4.5c1.4,0.1,2.8,0.2,4.1,0.5c8.8,1.9,17.1-1.2,21.6-8.9c2.2-3.7,3.8-7.9,5.2-12.1c0.9-2.8,1.4-5.8,1.4-8.8
		c0-3-0.8-6-1.2-9C740,41.6,730.6,32.8,720.9,32.6"/>
	<path d="M140.2,53.1c0,8.6-0.1,17.1,0,25.7c0.1,6.2,0.6,12.4,0.7,18.6c0,0.9-1.1,2.3-2,2.5c-2.4,0.6-4.9,0.6-6.9,0.8
		c0-10,0.1-19.7,0-29.3c0-3.7-0.4-7.3-0.7-11c-0.2-3-0.6-6.1-0.7-9.1c-0.3-5.8-0.5-11.5-0.6-17.3c0-2.6,0.3-5.1,0.5-7.5
		c4.8-1.3,5.6-0.8,7.8,2.9c2.3,3.8,4.9,7.4,7.4,11.1c4.8,7.1,9.6,14.1,14.4,21.2c2.4,3.5,4.9,7,7.6,10.3c0.8,0.9,2.3,1.2,3.5,1.8
		c0.3-0.9,0.9-1.8,1-2.8c1.7-14.7,3-29.5,1.1-44.3c-0.1-0.5-0.1-1.5,0-1.5c2.1-0.5,4.3-1.3,6.4-1.3c0.8,0,2.3,1.7,2.4,2.7
		c0.4,10.4,0.6,20.9,0.9,31.3c0.2,7,0.7,13.9,0.8,20.9c0.1,5.5,0,11.1-0.4,16.6c-0.1,1.4-1.4,3.3-2.6,3.8c-0.9,0.4-3-0.7-3.9-1.7
		c-7.8-8.8-15.6-17.6-23-26.7c-3.3-4.1-5.7-9-8.6-13.4c-1.1-1.7-2.5-3.2-3.8-4.7C141.1,52.9,140.7,53,140.2,53.1"/>
	<path d="M621.5,100.6c1.2-4.6,2.3-9.3,3.5-14c4.4-17.2,8.8-34.4,13.3-51.5c0.1-0.3,0.2-0.6,0.3-0.9c1.2-12.5,4.5-10.9,13.5-10.8
		c8.2,0,8.2,0.1,10.3,8.1c5.1,19.7,10.2,39.4,15.3,59.1c0.8,3,1.9,6,2.8,8.9c-7.8,3-10.1,2.8-12.3-4.1c-0.8-2.4-1.5-4.8-1.8-7.2
		c-0.2-1.9-1-2.8-2.8-2.8c-3.4-0.1-6.7-0.4-10.1-0.4c-5-0.1-10,0.1-15-0.1c-2.3-0.1-3,0.5-3.4,2.7c-0.7,3.8-1.7,7.6-2.7,11.4
		c-0.2,0.6-0.8,1.5-1.3,1.5C627.9,100.7,624.8,100.6,621.5,100.6 M637.8,75.5h25c-1.1-5.4-2-10-3-14.6c-1.7-7.8-3.7-15.5-5.3-23.2
		c-0.5-2.3-1.3-3.1-3.5-3.3c-3.7-0.3-3.7,1.6-4.4,4.6c-2.4,11.2-5.5,22.2-8.3,33.2C638.1,73.2,638,74.2,637.8,75.5"/>
	<path d="M429.8,100.3c-3-0.3-5.1-0.3-7.3-0.7c-0.6-0.1-1.3-1.1-1.6-1.8c-2.2-5.2-4.2-10.5-6.5-15.7c-0.4-0.9-2.1-1.8-3.2-1.8
		c-5.4,0.2-10.8,0.9-16.3,1.1c-4.9,0.2-9.8,0-14.7,0.2c-6.3,0.2-7.9,1.5-9.8,7.3c-1.2,3.5-2.7,7-4.3,10.4c-0.3,0.6-1.6,1.1-2.5,1.1
		c-1.4,0-2.7-0.5-4.8-0.9c2.7-7.2,5.4-14,7.9-20.9c2.8-7.6,5.5-15.3,8.3-23c3.3-9.2,6.7-18.3,10.1-27.5c0.3-0.7,1.3-1.2,2-1.7
		c1.5-1.1,3.2-1.9,4.6-3.1c1.9-1.7,9.5-0.6,10.4,1.7c2.8,7.5,5.9,15,8.5,22.6c2.1,6.2,3.3,12.7,5.6,18.8c3.6,9.8,7.8,19.4,11.7,29
		C428.6,96.7,429.1,98.2,429.8,100.3 M391.2,70.6c0,0.1,0,0.1,0,0.2c4-0.3,8-0.5,12-0.9c3.2-0.3,3.8-1.2,3-4.2c-0.9-3-1.7-6.1-2.9-9
		c-2.1-5.4-4.4-10.7-6.8-15.9c-0.6-1.4-1.9-2.6-2.8-3.9c-1.3,1.1-2.6,2.3-3.9,3.4c-0.2,0.1-0.2,0.4-0.3,0.6
		c-2.9,8.2-5.9,16.4-8.7,24.6c-1.1,3.2,1.1,5.5,4.5,5.3C387.2,70.8,389.2,70.7,391.2,70.6"/>
	<path d="M781.8,33.9v20c5,2.8,10.5,1.9,15.9,1.7c9.4-0.4,7.7-1.3,7.8,8.1c0,0.4-0.2,0.8-0.2,1.3c-5.5,0.3-10.8,0.6-16.2,0.8
		c-6.4,0.2-6.9,0.7-6.9,6.9c0,5.1,0,10.2,0,15.9c1.6,0.3,3.8,1,6,1.1c6.6,0.3,13.3,0.6,20,0.6c2.6,0,3.6,0.9,3.5,3.4
		c0,1.1,0,2.2,0.1,3.3c0.2,2.2-1.1,3.3-3.1,3.5c-5.1,0.5-10.4,2-15.2,1c-6.3-1.3-12.3-0.1-18.5-0.2c-2.7,0-3.4-2-3.4-4.2
		c-0.1-12.8,0-25.7,0-38.5c0-8.5-0.3-17-0.4-25.5c-0.1-6.7,0-7.8,6.9-8.2c9-0.6,18.1-0.6,27.1-0.8c2.2-0.1,4.5,0,7.3,0
		c-0.3,2.6-0.6,5.2-0.9,7.8C801.7,32.5,792.1,33.2,781.8,33.9"/>
	<path d="M208.6,25.5c3.3,0,6.8,0,10.2,0c9.3,0.1,18.7,0.2,28,0.5c3.7,0.1,2.1,3.5,2.6,5.4c0.8,2.6-1.6,3.4-3.5,3.7
		c-3.3,0.5-6.7,0.6-10.1,0.9c-4.9,0.4-9.7,0.8-14.5,1.5c-0.9,0.1-2.2,1.5-2.2,2.4c-0.4,4.8-0.4,9.6-0.6,14.4c-0.1,2.1,0.7,3.2,2.8,3
		c3.5-0.3,6.9-0.7,10.3-0.9c2.5-0.1,5-0.1,7.5,0c0.6,0,1.5,1,1.6,1.6c0.4,1.8,0.5,3.6,0.7,6c-5,0.4-9.6,1.1-14.3,1.2
		c-8.5,0.2-8.5,0.2-7.8,8.7c0.4,4.7,0.9,9.3,1,14c0.1,3.1,1.2,4.2,4.3,4c5.8-0.3,11.5-0.5,17.3-0.5c2.2,0,4.5,0.6,6.7,1.2
		c2.1,0.5,3.6,6,2.2,7.7c-0.3,0.4-0.9,0.7-1.4,0.7c-5.7-0.1-11.4-0.3-17.2-0.4c-2.5-0.1-5-0.3-7.5-0.2c-1.9,0-3.9,0.1-5.8,0.6
		c-5.9,1.5-9.5-1.3-9.5-7.4c0-13.6,0-27.3-0.1-40.9C209.2,43.5,208.8,34.6,208.6,25.5"/>
	<path d="M326.8,86.3c1.5-1.9,2.8-3,3.3-4.4c2-5.5,3.8-11,5.4-16.6c3.6-12.6,6.9-25.4,10.6-38c1.4-4.7,6.3-6.4,10.6-3.9
		c0.6,0.3,1,1.8,0.8,2.5c-1.5,4.6-3.4,9.1-4.8,13.8c-1.5,4.7-2.4,9.5-3.8,14.2c-3.9,12.7-7.9,25.4-11.9,38c-0.9,2.7-1.8,5.5-3.1,8.1
		c-0.5,1-2,1.9-3.1,2c-2.1,0.3-4.4,0.1-6.5-0.2c-0.9-0.1-2.3-0.9-2.5-1.6c-1-2.9-1.5-5.9-2.4-8.9c-1.8-6-3.8-11.9-5.7-17.9
		c-0.5-1.6-1-3.3-1.4-4.9c-3.1-10.8-6.4-21.5-9.3-32.4c-0.8-3.1-0.9-6.4-1.3-10c2.9,0,5.5-0.3,8,0.1c1,0.1,2.2,1.6,2.5,2.7
		c3.2,13.7,6.1,27.5,9.4,41.2C322.6,75.2,324.7,80.2,326.8,86.3"/>
	<path d="M272.6,24.6c2.3,0,4-0.1,5.7,0c4.8,0.3,5.4,1.2,4.7,6.1c-0.3,2.2-0.1,4.5-0.1,6.8c-0.1,4.9-0.3,9.8-0.3,14.7
		c-0.1,14.5-0.1,29-0.1,43.5c0,0.8,0.4,1.7,0.3,2.5c-0.2,0.9-0.6,2.1-1.3,2.4c-1.6,0.6-3.4,1-5.1,1c-4.8,0.2-5.6-1-4.8-5.8
		c0.4-2.2-0.3-4.5-0.2-6.7c0.2-3.7,0.9-7.4,0.9-11.1c-0.1-6.3-0.7-12.5-0.7-18.8c0-3.8,1-7.6,1.1-11.3c0.1-6.3-0.2-12.6-0.3-18.9
		C272.3,27.6,272.5,26.2,272.6,24.6"/>
</g>
</svg>
